<mxfile host="app.diagrams.net" modified="2022-12-23T08:59:34.214Z" agent="5.0 (Windows NT 10.0; Win64; x64) AppleWebKit/537.36 (KHTML, like Gecko) Chrome/107.0.0.0 Safari/537.36 OPR/93.0.0.0" version="20.7.4" etag="oEVhsMAWS2hXbslsBsZ8" type="github">
  <diagram id="QwUFaolUAO5ELvISz_ww" name="Sayfa -1">
    <mxGraphModel dx="1266" dy="797" grid="1" gridSize="10" guides="1" tooltips="1" connect="1" arrows="1" fold="1" page="1" pageScale="1" pageWidth="827" pageHeight="1169" math="0" shadow="0">
      <root>
        <mxCell id="0" />
        <mxCell id="1" parent="0" />
        <mxCell id="UJDGfCUmO6uZdWw0l1g9-1" value="" style="points=[[0.35,0,0],[0.98,0.51,0],[1,0.71,0],[0.67,1,0],[0,0.795,0],[0,0.65,0]];verticalLabelPosition=bottom;sketch=0;html=1;verticalAlign=top;aspect=fixed;align=center;pointerEvents=1;shape=mxgraph.cisco19.user;fillColor=#005073;strokeColor=none;" vertex="1" parent="1">
          <mxGeometry x="380" y="200" width="60" height="60" as="geometry" />
        </mxCell>
        <mxCell id="UJDGfCUmO6uZdWw0l1g9-14" value="" style="edgeStyle=orthogonalEdgeStyle;rounded=0;orthogonalLoop=1;jettySize=auto;html=1;" edge="1" parent="1" source="UJDGfCUmO6uZdWw0l1g9-2" target="UJDGfCUmO6uZdWw0l1g9-3">
          <mxGeometry relative="1" as="geometry" />
        </mxCell>
        <mxCell id="UJDGfCUmO6uZdWw0l1g9-2" value="User Client&lt;br&gt;" style="text;strokeColor=none;align=center;fillColor=none;html=1;verticalAlign=middle;whiteSpace=wrap;rounded=0;" vertex="1" parent="1">
          <mxGeometry x="365" y="260" width="90" height="30" as="geometry" />
        </mxCell>
        <mxCell id="UJDGfCUmO6uZdWw0l1g9-3" value="" style="shape=image;verticalLabelPosition=bottom;labelBackgroundColor=default;verticalAlign=top;aspect=fixed;imageAspect=0;image=data:image/png,iVBORw0KGgoAAAANSUhEUgAAAJIAAACRCAIAAACnjXZ3AAAAAXNSR0IArs4c6QAAAARnQU1BAACxjwv8YQUAAAAJcEhZcwAADsMAAA7DAcdvqGQAAAASdEVYdFNvZnR3YXJlAEdyZWVuc2hvdF5VCAUAAD9eSURBVHhe1Z2Hf1zV8bfffyk/SigGU23cG8WAAdMhISQGAoEAwYRQHEKsbZIlF7n3inu3cC+y1Vd91btk9a7zPnPP3bt3q1bFkjOfY/mWU2bmOzNnzm37/9TdSUNGiU3x1FGDRhkDRRslrtHvFP2PwTY4JIcHlOpXqlepHqW6lepUqkOpNqO0+stto1i7+izVKNSnFW3pga6G0X+007Ha3HG6W2GLRCgKLaNrVA8STUrVKVWplHdQXW1Xac3qaK3aV652FKsNeSolU626JRvbi+TgsTp1pkldble5g6pCqRqlGgxcgdACL14KBnJS4Lt7YUMduBQ+gWZxFFQMTrVKZbSpk6VqY3rvL6dbPttZ+doq74KVWXMTvLMTimY6SqY7S6c5K552Vj3pksLG045yDj7jKJ7pKJq9Mm9+QtYrq/I+3lG+4mTTxvT+Y6XqVqugSOcMwUAMx6AMHRUPG2y2zQmlCYNtZHMMusAJUGK9Eue40KrWZKtPD3ctWFUxzV0JGE+4ah9z1U91Nz7ibpnibp3ibn/Y0/6wu/NBD6XrAVth1zjYKRU87VSmyaOuBprTiUDrqpibVPbRr53JGepsiyozBmVoGAiFZLJQCqO7BTa0oQMgxq4DYFG/2uNV3x2tfy0lf7bDC1RT3C33Jfb8X9Lg/yWqMZbfeYYC20mD9yX2AeeTruqZjoIlq7zfHqrfkT2U3yOBFGa0/8GeyaiNhoYmB8ZJCJIBQW0ioxS0I2gptbtMfXqke5a7BFeY6q7HOR5ytz2Y2I1y700cvCfJVLfeuNco+ki0YtYBb6uEVhDkcE3ckeEeczUy9ExX6bIDHUyNhcZECHsmcncBTSZsbDCFoA4mFeLSxXq18uztl5K901yllmP9zg+STb8DD3h6dNDDRaa6mtGyjnhGqcZpKDKryQxn7DprKRJX3bWGHTTSP83p5P7EnhBrsA0kLvi0w/dCYh4T4W/VwqR2vgjxc2JpgmELCpVgBmDlSnK/t7fUkzigVhSKNrUqUZ9dmxy539OHup9w1U9zls1xFi5wZL+5tuDve2v/c+Z20qXOddd6tmYOEFoPF6kz5VKOFEuk3ZYxmHq9lwq/nG396kD126kFCxyZsx0FdMKID3taAU8Pp/2Sco9nSIZL6ocZWHrc3UDl1zfVbi6QyQ+2QW4SaaJhszwMs61Sak++endDCbkfdg1U9vAlWkvseSixS1zK3YivUI2U5NMj/c50tbNEnb+tCoyERWfzzYY26VavzxiCotdzHOQUFahGZZoQ9y62qd0+5bqpPjvatyilgs7xy6nOBoIkqQ0OfZ8nKJbi5cRqqr25pmh7tnRCn5PleRMdJMEMJfqUWp+rXk6tespR+Zi4V5d2L5mBjHyBbRRH9Jvp9L3gyf/qQC3J+tVGWQDoTN0Oj7V2ptC/LsxDFGtXn6WafXmu4aRD1n83mtXWjP5vfq190ZMzC793NcKAdkGdv7ANcrAKroTfF9dUsjQsNXqg5wmmiYANY6QgG8piejjsU0Q20u4HPe0o4j4zs9CTlulb6GVeYtm3pweO1qgSQ62oGI3foaSAbmEPIBkIJE41qR/OqWdXyUoD/GAJCO9PwqpM/zPw6+Tsq8neffnmnEcP2MfEeN5EwKaVQoy60aM+/bVturPsEXczCCF8iCJIKOY5cpl+DhZKFKIJqtT+RA/0YyhlBOu/OEkbFkq3VvcMTQw/WqKWH6xb4PISoh9wd8Ck5tYyMjyPOW/ZnpZL7eK1ep1gIae7DaZhFkJx0p2FTQOGJVYqtfZG/wJPIcbLjGUJf6+nH+Ef9dwm4X5+dTkzza1+MXn80rRcv9x+FYyP2MMSY8EAbMBM9pBalaEWr62c5qqe4moyQrppcMRPxCE8zHcVJl7oIr0iZlpRwc+znf4XYMP6sMEz9eqNjZKLE22snI1ieFj7k66K19cUbs4YIkPDxtEUraJHmzsFW7iK2dX+B0swhvfvyFFvpxaRlZDNas+7L2mIDYSa4m5njbFkXdURY50AcmE0npzfEdi0wNpU114fmufwEkzu82eJwGbI2YqHvbKxdr03MLFHgcpOdwq22ARjsAeT2NbWIvXG5gYmNoQiVNzr9zz+ItRcR777Ug8BNhAw+CsXU+4G2GAjio45DLsExpwB9df9hH5J7llvacwwz98n9hMqyQ83ZMj8gS4mK40OpmHUCnswCauIxipiR656Kdn7uKfOHj8QE7cD0Q931t/qk5p6qht30cYTNg7AJfGBkHKuVr2yupR1MTmYFgnZHnT3THU1T3P4vj7ek9kr1VCENJykK3tBJCzE6w2wDfN5g+q7swPPuHzMbXrCM8RUxtKl/oXkkmMVMkeAdPSYP0oazyAJZswERPbkm2qmqxSErKUPhXgyzVH9zoays1Wy7CWGxPAwjttPRcQ1pM6IaJi2w3XNSZhHBAQ5X68+2CqrdZCzDBQXJISC6MpLMlPoJCWKdY4meI4PbLADW5gVy+GVZ1u1DFifcaHIlGGGozThkswNpNc6dMQgzuoKMRzRqjMKGqYt5+LQJLUQBHFIIJPTxVJZ2FgxkzkPq2V5+q+jTSTS7VF9bvJgg3tMj1zry8MsQqsfdncamMn6lA1msleS808YThZ3xNDCjEaksRCMxcGbQUY9/iAOQhEMfyNhXltAeDQvqBrLcxajpNCfHGgp8SOnaYzzwlhh03xjcaVD6vM9lSTBTMsWYCTKML1sT1NOz0gvAt2dsNn48dfT/6MEEpD8QfXpwVZSEmOFYOrh/qT+x501f9lWVjAgiorPaoehscIGE/hZXq96b5vcGWEC05eD708axOcI7quu9BI5Y89k/wskgMF/NBE4rlXB1E6GPMtd8rBHLo7LHYwkpokuQs7rGyqzewRdagYoRqfRafSwMZaO7N4+9f76IoID0VwwM24WM5nN9ZTv9klgJE8ZOWN3Gw0DmybOYp0EzEM1amGST6Y6Vj6GHeN2JJyvr8nP6g72uWE7jUSjhm1Q5yA+pd7fXgdmlp/d6+kFs+dW+U7XSpYMZtSMi7QAoxLjriCDbf4gMjPCxSa1OEWuvlprVrIVkHtzUzXREr8M8rkR0mhggzONGQnSF3vlaRydgLCU1py9uLr8/G1hnWojgICqVvlfJD/n/AESguHVTvVKaiU2baaXkqSQoNUv215eakTUkenHRqOBjcEwKGasr49JmmRc4DHms0S5Q7Z0fUVmpzD9PzaZ+ZUeQv7DtmQknMLasof4BMOcbvX+lponDOTE55IGUReG/tf9LVW2i84jpRHDBkN6Tc36jJTJyhvZwM8EMyNfCpYiMt0VF0csgpdI7PgPjww2TRyTfG1IvbOlWm59BHLsPsz9h2ONeiUeqekwFB22SKxwAOtgxlqTqaa7yklzYYJkCYaYzwjlN9vM+Tac4gQp0rBC0Y7f5YQqxOd61ZJ1VdY8h9LkLqurwnVN8pdRhMoRwIbeNRMXG9VsT9kDieaamr9gtiixJK1ZYmM8HFCHrvBabI05Uhe2CSwcj9hDGDsTTYyOfq1iZybEIkN3jXnucod6fpVcRtFK09dQWCCdqQ5bEhgU28ojwEb1aC1wee+QWppaQjzUNyxg4kFP+2xP6amaeBfUdK7jPmuDauPaSpn/SR782Lx8Z9aNTTED17gS/Gg70+bFhmYyzhCCvGBzvkEtSCw179UZ11Aw95dX+5hW6DZOmTXFCxtcMjax+O+H255wVf/e3akHBrPpztLtJaLx2OrmFJLDH+iWDqpfC9Q/D1W/l5r/ojvr2YRbS1Pylm0rSbrUeble4ARUrZrJIrjVImOpMAxLue3qtyp1OF8dL1aX65SvX+Ibp6hAtWFZpQKVD1TKpUuQ04slI4mr/2hvM4qNpxOLYqQkQbaMEuFyU5aa5iwzUkfT1Z5y1zjOd+r7uZEx0+82GZhhcSVKOa+q+Z4S0hk4nupqxuKM0owHk2JNd5b9cWfDqToxEQa1k2XagYEiDzkOhAa1yNe71M/n1asb6mAMnuWdAWfVNGfFDEfpO9tbmJyy+qQalYUXPz+aVZNh/0HqAP/q6wNPO6tR3e8MnwM5JrlVV/q0vINSOyyKcMzfiaa4YKMJ5n/htprvzJvibtUPoDEeikbFJLKMF8NSaI4pYWsXGtSbKbnIDFrG08T1JFSiBXl2WNZ/dDjF3fKYu3aOI+/n062EULwzQtw3/w8VZlxIc4u8vkHlPnf7WVf2NFcpvD3maYJhCtk8hczQMLJSKvz3VHOhcVOUhhE44pBxFBVRAXg+3ifPq6NA/cz1wx65J46l0gN1jLqjh80k6qM4Vmnv76if4mrSuRAF/b6clJ8R+VKNQG45h7ayfUXiZIbkjbjs0jVFv5xtP1giz5BfbVSnK9XmjKHP9tXMcuU/4a561NWADX68pz5vUKKQ2dG4k8ltgOBZW1h6h3pzYwU8YFhwu8CRyxr532daV13pdV/o+v7Y7TfWFs12eDn7qKvuSWftC8m+/UUiJsLqfoz/g0iPJkuCPrV0dSExBjWSh7MeQJlLN1Uxwcd2AIuGh02LsT1bPeGsvMfTf8+qISML6sLQDvnkFBUCZCrC9FQ2QZQ6J6rVAke2REV34/Nrq9d7JVrqOYzoStFzHu51oVN9cVzixuPuhumuymW760hVdJ4y/mRyaxKbjILJX2pSS5Ky4QF/WrCqwpmuMgflkhCOQjyksFGu1JkW9dmRboLHI65WbHGeI/fXUpHC7zFBZAGpJwsSyJlOn55ujCxhAAtYlz5AihCkzyg0PGxYR3a/eiGpiPCo/YzBHndV/pA2wJTGGOEsQppLBEDjOV0KY0QFKIKgmms8jkC3WBYyUEcXuqIyQKKUbV61wOUFZpr858xtBtJWfEcJHrCevB710poygvYMZwnu7u0TbrV5wQNMUtigJtrH8o5XqOeTywibWORCT3H6bTlFV9EIvSA1DZkXkQ5lilaT5PGhBZ7C692imShkOgMUGTatdGuA5Sf6rKdCjLS1+dW1RfnGfb/YhHg0//FoHaaEVH/YWltgqCAM6QBDkG61t5T0pwLk5qzMPttktAprNr7EuFjM57tLDT+r/upoh8+AJ9qwHAce3Otat1q8uoKgh2l+uafCMrKIoVIT3ZYq9e7GMuZ4VCqXLIxLg58dbKc5ao/SMgQ2aoVVpDHKOlujyJr0UyFG9tiHNpmTsDUqxCYM53K7hEcdbfRE2GeejEroQmvw50uK/A3I/7S7idAUVQdjILtmAWBfuZrtyHvaVfbWtjrUinJjy0hjnA9VpNWpmZ5yjGxuQt6ZBhEzIllq1rolVCKgddEL5Ng9bEw9elyrfgjFgo2wQJb4waZiLEKHR8keXc2f7JeoRb9yAyomMfwvF4UzZnVmCKLNcC1Mohqu7FXqpVVFj7lbmEdvtQqWMYLPWEhLj4v/YWfDk64KkDs9kis+cIVV/fCbBD0S429P90WTVA+kN2jFiF8d69ZZpdYwkeytdYVlhvJ1tYj9BAfJ4FrwvceH0ksf9HTqTom/C9351zrFUgKYRembY7D1xmYUUf2sOyfHsK8YFNINVowuki8Tn+Vlw9RrXRgBByMNNQoKCstokJ5zu0VYxvrmUIPOgywK4i2YUfyVPUS71a8WuXJxuMVrKzFr+gyuGEqcIhpl9qoXPPlW3vCgp4tgttkryo9BkWHjD87E2O9uqyc3JTAyZ7JCBAAWhoAh6rPCi7+VnTgA32UD6pkESfo/31dNlthlnoxMId3QHMVdaVB6Yf71/mr44UjYUKOhoSG6D8CGsGhwV5YICGwHigQGHaY0BfEWwqhBMAbSf9tbA6uElux2UZFGLgZRB7/ckCEyol5jDpIHcF7bUMuKCwaiNQ9JSUwb1GKcKpdrImBmRF55I+bZ5HL8l2AVsTv7PMEWPBHZsB3cZfW1XlyHI8MSDXUv/EVsuNdzxgcbiwDe9ABdyao6CjLbGvIOmepznJOcgkBX2BuuMlMz0Uj3QAavezhfLazCf2Tyc84fGiLXy6n6qSETOXrYVxAre4gMm7adj3eUk/7pq2fkqZihJ12mK0gjZMcphOAYdH+rlnCPJDtyYjFhJ79Emgbx7BfWy7WJN1NyWTmRIwjpSsFVR0Zm2wBsDLT812oGwkpw67COh4EN0XDQXwsU/sri4WhhzGWA/4KfJlSammNbDBgz3B82FLP6Ns00jEJgMwkOjtYqFi4PuDv0BRhC5eIkLzmCqTiDTNkjkYbtSr0J224jWMcDW4iC0OaLG+WN+vfXF2jYIo4Yw4BCKZhp3RBWgeof+wW2+atrBbZYHUaAENGITycrBLYnnJWnyqLAFjy6JmqWKPXamgJ93YRCYCOP210aMsMFxg2FjT4ZDGV9sr/NuDkksxqeCzdJlzpDAl0kHkziOJLkdRkZvLN23TVJruxto5PJnOaEZcCsRICv/3S7j4CJ9UUbMV6KxDSwIfL3h+XpgWdc5UQahh7RQNrb9uYLbMwLV5ukzzhh0wF2Q3o/bnqfoW3jclfre9sb4MrGSRTYMDGGZ7ycLrm/4F9PyA29eYllhX0ygHQh/wJdRCNqoej5SeVPkBMfqmebni3irFUiEuwC0k1jdgR4T1p73MCPmOiWSJV0vlVmJmfVjRZT6dF4Cyd6kLz3SjeqR3XlgxGaR/NgatKcpf1zKRW2m899pLXXm605MkjbJmxWj1qA1Ou9CKAdVlbvniYWJWhNiIpSd3jYIJp8ekiWkC8n5hAHCCMW6W7MziIRnNB8063Bp51iv8eLY84WNoo/XlqEsdL5kWLJ6HCXDemDI11soFxi+LJtJSRxH+xuBULdNmawDRCVEDbhuiJK6zXcPUkK13f/1uE31kiwWaSHf3dD0aPOJv3dAjKc2Y6CtNZhVhIMHM4gTbbmqzkJ3pmOotQ8MQhbnZjAD4keS5V6K7UIPb6QUs7CP4b5R9dOXOZFY5Ar6lWz3D4U905qaXlI+hOVzP6JkOfb5HrQHEdeyi0zcRsRoavrPWqOM19uopqJSctrKfmk7iYnNgqFjeFPNyq0PCWxQ8M21dX8p82+QPIdhSJKx3j4/ttrcnG4l9ZWFRlgoCA/RVYo/fQNyWSTkgknBWRGjisG5LHUF0SaGV3iJJI7XOSLIz043OyEoi35smuyGqsXueqANzAHf3G4A/tempSR71d0nK6mCfUyp362Ry7eathITJD9QGUEh7FgM2+P4ZLfpyla/j6pVzd+3Fmz6WYfLW3qjkV2XmlCw315kpSiji8ONGkrDtTwb9nl0+HxHNbjKWeqeH21tzCSxWmiob0to7OrZwtKJAeN6n+Y7MlaNTchj6l0YXJlZqdE9WGlZhQA3uWVK7czEgo3pUe+mhPCZzgxEAzs8UpSoxdd5BY43BfH+6yQa5ENNkNIvEomRuOJVT0xznT68rtlio49akSiCdzgN18d7QC5Oc7C5cfksjpYYlycooIuDM0u0gIP9U/XqReTC8imyGY3FEvcjujrNKQJp9AvygJs2mKzBd3qRoO61qjgnF0ONhoV2v3jBq7M2YihWSr940Q3AQbD/XBLWV6/9Gmxaic9NE1YLRyrUotdmYSov+5vwe04Hm4u7BoPHEQlzjGKb1DNSfQxvZn6d/fOSSznYAgDgSDJSDBxrlIyN7l3J18ykLuuHx1oQ2zORqKolmsRg9EtUP1lc+E0Vyne8+62xmMNggR6xBpgiM61CjCrIjK6m/hZmb6oJld6trakD4olhgtNWywAYNJ71Xqv+tvRnufWVD3j8k13VSIFS0YSBHYXpVR8fLBrbY483U3laJEDeLDa7WUyL0gi5mp8eV31iQY5yOgBxRlrZRiGf/Iszw2ybvnG6Afrc4r89+KNmqZm/LuaYmmMamjgy2M9GKt+igDkiFKHi0L9PgAbfGBZLM6sHBKfQ/KtRYHYGhash4cNYjxGLR5SH+yS63UolDmAIL4la/BaiyoeEBv3dqlzNSrxUvfr64pQwRPG/TkKCQJIv7OluqDPZB1HAWbwRpWY9mGf+nhb0aKVN2c7vHROZfgnsBNqKGxLkYd2yqhAtQ835rO60uBZWT5Fi3+mXj3vkfvaj7sbFq1vh5NFCen/+LXidKXczsZ8USuFjYIetStXvbcub64jiwn4o31NhVFeyND9+2kYjcHVXuOaonX5Hg3898xtBoVDiwKwYWsI89H2cus2zUPuNvKiW/3CjX3kYSmYUdnWyCH5j0frmDywIK1QtGz4RMXTjkpDy6JomH7Wle1JV7sr1bPuvMfcUvO9zdU5fr3AKqFpd7F6Y3OdhoolDqy+6M74x8F6R1obS9d9BWp/oWJWJof+5+GGV5IyRb+uYj3iq+trtnhlWUmH2tcFszp5jpGzC505u8pUrlK/HK95duV18JYIv6ry7e23/3yg54O9nUu3NOPE0xzFDPqS++aay22oTvMWVU9aKbpEIbyCTshoYMC6J4DnvbO+0D9NGIF2yAYbDbyKFDbX3uC9jcVmg4izQRSKyFv/kPSDnR6rUe9urWECB4yp7vpHXQ0ylxgPcgHnHHfpt6f7rrdLaEIXJ6rVXE8JyHEKn/MOCGD5/erbgzXGEzjyBNzspIp/npVHEAmwNGEIwhe+SMF4sVOckih9rE6tuKgWrTE/NYnHf76rLKdXKtCnzKbuLAxolrtkv0+a0JaufmtWXx/vmu+RrzADnlkcpewuXlv5798G9CcftOPGIq2UiKrhmD+MaecxrwYbKMhzXQl5zAIAFAE2uERyGLK758qzsnI03dM+pH07PqK6FdxQR3qLWne1E+0v2+b744bCv+2qWnG8gZyTbAItwCICUNgGOfE5lwD85tbm1DK1cG39NFc1bjHX6V1xsinX9nVcmjAEDGP4lD5jmyOcYlxkKR1UyRc7n3d70TvgPbu6el+NOtio5ibKdLjImQVmVKOJdms4gQdWjWlValdmb+ql25uudRzMU9frBWzsgwoas/hUMkyQ1H6fcqkDm9YLMKYqGNtSKAJabQOwwcG/LwKVeadVT4ZHSoQtBBCy8xUfj9EIIdGINmeMSzsWykKztjgjLCIGx49Xq9nucpIUAgB+aTy1Uf3W1oa0NtEdXQ1j6X6imtbLzT75aBvYYw3TXeWzkmrp8xl31d5SYQkY7AQ/cMVB7b4UdEI/GiqpYPgK//ycx6BhYKNPLCytWieG1jKg+ZtT8lCXRQHY0M7b25pxNeuuD+G7uM+ux5FSVBbpEP60LlC6LigifCxiM8dR5cEaMuPyRzy3ieGEhC8PNpHFoUFt6UJxcEkVCh2id2zlP2e7WVljqRjEE676daUSGwMd2shi2Cq6q3En+qRzcjSEvT+pX1/Hf8DT81JqLUqwlhAmbOxh77PcPo2ZrkpEouoYmAuCLTQJtRHcWCfDklVhgEiQqdRLG+TRWGLAfy+KYFhloCpboe2GIQwF5FbfFLvWsP37svguoI6wp/EkxGd01E7igwvplRhwENIJ75iO5k1gYwteM9vV045yahiOKe8+fX0iyDEtaSZOKmOFhPXhBF+eGCLVhPtvT3WjbjCzfCIc6XiI5iBHzz+fH2RBibwkpSerxUTQho2ixoxxJASwy4Dafzwv16r06o3CRH65PhAJBDa20MJxnyIr05VwNaZE9w2RIUD+jkejpNHRkGBGJGSlRf4Gex9ur9JvPY8XDwjOsuSv++qnOusorybn5vXLQRtNAmyIvD5HbkdY97tZeu73BvIMgQ3jAp6Nt+QZKfmOhv/u6i6ftJ84kGxkiYEGc/olNUeG51IqyNcDKdJYyC8VXTFE0aB6eV2tRGBXxQ9pEmMmRWrLRMh99NMFOqv/nWcIaJIudcIYDgcJbGwR0386IZckNLb6Zs3529J+EmEjDMDoyssiAGXVLdkdH378vej/sc7NXjXNIV8SmZNoXoO1gvAEkgkbpslCjbW8tYbGpJYfrAOmAGyEePKRT3ZWWEs8ai9wZBcY7SeL0BoslgzKd1mY1Zam5BUbnuEnf+DSCI+N0ACh8p318k1gedLpfOjjFxNJSIPafUouszHjakSCLn1o2NAFiRlhnXP+Si2vrynU2dpkkZ7VNlzrJjwC2+YMcTW/Kk2rFBotbPZExpxBC2QKYV1ITA42kYkjnUlqRP64RbxfI0Kuu8iZoZ9vh0zYwHah4xbndCVY/3hnJQmbxnZSSMeAZZtLCOusIAv6xflGBdDwRLcgh8PJ0tDdPNNRdKhKJohJIZjRsn9zqMEe/+YmyJPdOv4JbGx5lZqfkGVFUmp/daBWrz0ni+AqcwBjysTV3t0hl8DvNDHExwe7prrlHdcVF4Kz6Ikl1M409uNxeX9VI/Kwp5Wpzn9l0g9bRp/c1X3E06YrUfu7I43WBDgpRNTaUazIjFirhS5F7EFy/Igh1mTL6ptg88bmBsNQZJTRrQvHQIPMBYy+8mxrcJLovdRuxgATtqudavbKPOvhE2r/crol/OrcRBJK/CFtCMxA7lCNwW5Ae3cENoY416pmJBQSdWa6SmvvWEwejgaJ2Ezkxr3PAGyE7tPGe36QwMbWby1i1xZsstb+rSNiNoUkEyMMfH92RPIRYvpF4+NCoTTOrAxivrf6JeoA2zRnWWGPTHiTgJxxkQGrtT/2yAKOJdCRGglCkAnbiTo1y1lsh23NlS5b5hagCYMNo3l/VxvTzMKE7OwhM6bfSRLYSkjNErKBjXX3jWYRf7JgA55tWbLK1og8lCgvy+8tMycLE7aDleoZRzGQsiDXsG26ZT7iOVlEiH51Qx2ckJXoC1rBNC5BMijY6oz6leR81j94eVqlzBFocOKJQQFlb74sSDRs+rrVNvOumx+2w9Whl1I2pPffJbAtSMgojATbePh9BNiec5NRt+BtV4xLtxPmbSHrSEDZnWc8fBcDtlMN8kirPUimXLKCpF+w8dBT/ESQfG9nC3zPT8i51jUBQVKGyGXptlKCJPlkbqeoz5A4AO2EkKQkwLP5Vj9A6DeeDNhK95UHB8kLrYGURD997jzX5k9JJgc2KyWZk+A92ShM3mliiItk1A55PhMdVRiPiE0KbKgdeNZdk/swFmyEw2N1ph4ENqzserdcuLS8jQXAv4/LPdJxWwAMAzl6CTWOFmMBQEY3w1G6qdC0Mns/4csp20nI1mc8NCQGvrdcXt9mbns2uRzxpcMJWbSFDAJsWK3nQvuT7gaNCNAQDs+2BMOWNUjiG3jI6zFX47eH6sdzuR2s0TCKAJukUoUSunG4L4/ZHqiO1Y+dRgiboanv04z3Cl31XxyXF/Imi4ANef975rZ9uU3UuWJ87AAyYWPOD7m49fd91TV3aLntByY2wVVGv/7kU+OCVVUsfv0ha5QUPqxp48Zf/mCmL6XWPuJuZvLflG9O/pNCqB1f//6o/BS/RgRoWFDeNJ7xhQQ2MqhyMihHxqOe29Qgk5zqal62vbziDl1KDtdfJNKXUz/cXCJ3L53VZyqF44jpeCCOxew56kljDkMJl5rk3j9pJElQeo+pIGjCL26J7HVKfXVAPvlnwYZfeQ1rhgQ2KlUq9eZa76OeFv2uB8F9ySovWCLM+FBMhWoKqaKzqXVX5ePncP/ZnhrbHYnwoDrikGgnrFuuuB9pYiAM/Ivd8tb9iCNNiABjINQOIu9uKMH1dUoCIi+4My1EBDb4A1uiomBrwGa4ZA4TnmVxY6U4RAqpom+TFg6oeYllU931sx1e8igSE44bFCdsw8CpW2MfaZJL5xFmiJBnq6N6diwyORkHYnS5XuPIxPU1bDD2562BtwwFNj0BOtLadCRlAaDzFhZzQWn3+LEVDzEUCMHYz5fkVQZS4fd33dbTbVQuwjgMOxBEnAIbxMdq/3qo03jZoP6PO5pwNROzGI1tBhF7lJGQ2Sdqv9Ihb+FOSewAEYHNWffDMfOeDGMJbDoc7cxRTzqtC5fGA8wh0/L4cRc/YXdZfep5j3wUiYlnzXX5BlFU5MI4jM0yp+iKjHGrfExY7tewaDta7TfW2I3vJGyonZX1MwnmdSsKVssyjmATgA2jxvXSqhUzv35yy3jgrv4X49Vbi8yZefx49JMpfETSC89dueoZl7wKNMtZrK8UYGoWI6NLGWhEM7o6Xq9mu5hF5DqkK60ds2DQySW4Ss6QpcgDni4yRBBh+4jx0QEdBgQ2uGcnv0c/3iqw6e9ifHZYvrikKc5sbVQUCpsdBrZ0EPvimPw6DMjNT/JdahbBsDv/PGdS/PjpbjHqG+3q+dWVYDbF3f7Gjg79aaqQbieeCAD/PCuP/dznllexAYVgYL8jIbBB7BA3562qBDD9MPn9iT2L1xjfw9E1hMSFR2fa4UQv8XREHZQISBlKLU6tR7+URUkVR2tl2tM+F94RTPr7N8OOnTjeZ6jmdKN6IUUeHiEWYRB7W2S1xHBB/Q3aPrTk7/SOEiPAxhvbmnG1ezwDYHafZ3Cm02f/VoQJG4QW/rSv40H/B7toQCKgv9TmZzWCCkZHDE+3RGa8ntlLF7axdBMJP+maiHGsUb5Mg3JJl/g7x1G8yyumxjyk/SNEn+waR4J4phqVaUKHB0vVArf8DgUdMvM/6mx6Z3tLkXFjj2p2snOrGeYvu3fCL+EZDRT1Myn4zFexPYMPuDtD3scIwIZFu24y9Zm/EEUhnjKpEEl0PB0HMoblDwIzHGkhC5HsIXWjW16hZHUPDCjFZiiyjVucbQCzSlTM9DM9qQ7/oJChfHq463K7tEKJ4ciFEGephvDXuuT96Omu8scM352RKN8EBjyC8Ed7Gsm8QUXq+99AYJdWLKSKlGIZnt0vbMM8ho4g5qCxxx6WaG70wHBo4LDxYRsgYD2m3yJfcV70YFEANmzwpPFFEgSQBsYF5X8da0ApMDd2slTA8Djx+uvdH28pfNl5/dmVlHT+Lk3KWP5r5c7MXt+g1NFGzUZag3rRk0O6hCTfnh44P6A+/LWHWP+oqwEjm+fI/elk641WAY/KGBmC0FY35y+7HMRKUH1Gu1qZ1rnQSW/yjUo6+dP+HjpccVHUJGbh8P3tV/mJLt0DDZlWjxerFUfr3krJes7P6mLntY+2Fqbe6EYQBsUaiLpjAs4PG2aKNSScayMllDwjSX7EaIZDbtnAjDVDBWBDyGIlCsKQgY0EBkt8Ndk7Xg+5ar/J6FbLT/XOdMkr0pQZzhJybsoMZxExWR9cmOT75cJQjuF/ZxrkqWR0ij19f6qL9Sad8Hf9jT4Ae9JV9bhbnkojmXplY92KC+pAlbrULrfNfEZh43KH/OTkfy/JTVeGoLIG7FlX9uZb/TgNHfJ35flBhgA5+lx+tLXQ0MauIvXaBvkhEBpOd5ZSAVbJZtmmGlyx/UPaQMHAOMQkDQkWYFwfKWIiwHMoxmWtHP9lLTPgB2DDpbCsr+XjfI06n3zI3QaXFzrEYMdCekbBiA771IvuDKBC4GmOkqVbGv+Vpty31Ops9ctV9cnR3rlJpfoXOKjz0poK1y31fGI+EQwtf3+qU18jRThtARdb1T9OiAWwpkHdBhhlMx0FcxPy5idkYH+L3dkLEjLmJuTMSShA9VSjDr3N9fh+SBsi3OGCOiDTLcglnO9nIMTHuv9+Wn38azttNWaL11Z/dVo509WaHLXyuvr6jHpuTQ2V6Q1WlyZlXWwM9DYWajfedGWhTczTsIHfsm1lsAeTEWDDWDCZzel91qJbvy6VNJIvSMF0ON9gRgRbd2MI20TUBY7c74813zLe30X7dE5hA1wBZk++emtdPuYMEhQYwBH/dbKj1uBbpwAaOayPuJfZoRLONi9NyQMtNDjdVUnkNFwKIBufdDNvyU/S4CjY7Hup+ckX2vJ65OsyNLe0TLd0Dj8gR00aEmkYGqv96w7fuRoxaNizWGVcjpyuUh/tqJgtH9aoWJRYcrJaTtGnRRG1EZvof73xIaDAK1L+d23sPQdg0z7B4gD7st4DBvM3t8g1lWEnfE0hjLJNQ1jZXaTmOuQ7BM8lV5G7I7P2GzuxC2dUJin45rR8XJGwjvowc3IBI0SEklY3IhFYiI2pOeJ/H+xtx48XpVRRXt/cuOxAx/JT/etzJROhGv0jJg0NCsozmQuIqz9eEANHcHK5lEwJyAxtBUBraUEPHKfD1RmS9RHbX3BlnTe+Z27pSteMk3SfGMQHu1sJjKzEmNju8UgAOFcpvPl5FgrARjOYA6HXNtVZywD+guK1poClxyY7owhIE8ZLv60WJBYj2GvJuemdomWb4kzSkZ1/IEdMBlfH+W6MDr/571XxwojzK/XphyawhxJRGajgFgiPIPxlm8KInKIC1fTQFpN24iwgrcuS9AQkDpdJW8ZFLeH1OcJxmjDQgXI1zykfoVmyTr6zbOlKCxUn0QTesjvl9jqY3Zdk/ijNC2sC9xqtDgOwaUJsT7peBphfpielcZ9vC3HSaCRdm5tC8IFU/9hfjkgk3Kdrpf9h+9ECkM59uLcVo3nOkXHxdmRvCyPTeyLqa1glMkRmj1riukm8TbwpgTQc4PBOtIyr04ls8pGU/5xopKElI/WtJrHHpwnK0c+PoPZ7jN/hmOqu/+mCmJ0m3RsUChus3+hRc52BKZEw9VpKPtEjor2HE52aW4bfnG1U81beYn5afibWb+LYiQroCxmIewsdmVjfl0flMbKwhkEhLl6il+CO9AEKQ/z42yDpwIcb8/WdreCK/nqaCCUSTQJGtnSzXOyG4WsdoUZm10k06rLdYxPNr1LEPDIs60ue9sFDYcPBSVo+3S2veemLmEwwKE5/1XD4wYPJUIQ8gbnAkX2tbwQZKQPBCcHhuyNk5NWz3L7CnvC1USzYomqKw8FfNGIH1RPxKobUolVlcHvA+MyYNZ8FiKqBpjK6NQpGtrlIJEVX/wl7Wyce2BjxVFPgscffJck1yT9tLrHusUFWL6GwwSvK3eMNPA9rXFZu+fhgF1OFP2iYnxCKTZynCaslpoq/bC3FlKzhbRRZ9bSFE2z2WKnMNJQDebKrVTmcFmLBGZH0WCyrUfpsTymhJSwqhPcZdITmrBEXObMIca9trEdwW/PwtqFEZebRr08PAJX1dQS6ivYlz1DYaA/H8D0vsdS4yqUTk75prtJrLRI3JC7ABPWCxQohTlKzpFcUwfCJl7qRxIr4Nooskm4Ou2VD8kvR9JBw5nac82s8agohuqXzxDT5MZ339nTYle43kfA+g45gkdjlRzuqWDw84yrP7xLm/Z2Etw0iJKV5Vpd8F4b5DIVT2GBJWtDrNyCLIYNCYYOoAPLfnZFHYnViQi9kdMQrEjzieDiFmz/7jMdygvyVKLcta4i4EW41MYgeKEyHC1fXkCJ9sbs8bHSbOnTt+Mlef3BIpxVf7iomyn1xYhDxA51F6DkCDPQAe98daQY2ZrjAg+iBthFaaaImhvLLWfkuOqo2Ipz8gOgXR+UV8tDBDQrAZlc9Ls8qx0hMzF8ile+sOb1X/c/pDUtYENykVUqIQ+l7jRvlI4JNE/Is2dSMPCx7/VcKLLIpAt4jyheN/PVF6iFhlc6XbcoHtm/TxGqtzyRZNW0UGNdSGj0A/E8n5WcTEflYsbAq5wJtpVWIfetdtH2rTy105z/sMp6cSzKTkTPNWtt+GW0UwdsgzcT3x81PXviT0cZvT5vf7AgZPpw4jbddbTB/dWPjzQG8LTzESVfmZgTiFGwsSJbf+/lka0mIt8VuOyJCxcD25w1505xlnxzpB7aREj3A3j8Oym8mAtuJUjliTCghugpAbhGa+fdF9bi7ASWjbQqdfHWgOlpsgyLDxnhMY+ltsv63R9vZnrKc7gBDMQhOSfwI8fpi4M+nWwEgnIkYquc4MJcMSphl7fjjEfkJijsEG92io7/v9j3lLH9lszwChIAj6hx1VSj13iYfGTgM6yAZSUtBsFGBagX98nSadb+MlGSao+R8fSAFC6fIsMExPaImwivIayu4xyOPBSw/3IhhBgMQwYIgOkEXz6WIt72+xlwJRSY7Av4NMCNE7NM/9uOsTb3SGSXMRh59RMRYRJGVZ5oY62mHL6tzeNO0s8wWKtYfgGGZ+0xCSVHYb1LZ61vbqBETWXGqzZjVjJui7l56+Mu+2yjfZjqhMkaGTchgxXg5WJbe/hlOHsQ7VCUTVbBUkRWHLowbkpWsYQ8aXyGLrIsQmYw/YMyShRUkIuGyVxqiqXIcYEPFCHu0REI6yK26MvzPllks6w0kTbplPP7lbnxzSyNK12ctsupDepuCGs80qLmOQuviBrPaDGeR+WaN1SB+2IjI2ha+PShTiz/DkUeDXttQS0DgbKDbKMTYe0vlNgS6eHtbIzDE0wqiDhgfqJLlJ7AtWSe/02pZH3+tYlLQzghITzz8A7kq5tHE0sfctc8nFmbG92gvzeEKeyph0ZZSpe+5r7wcutwOJz1irfywodxtsNZqoP75nvCcOZSie5uhJkw+u0uEedDTea+nn37BDwxSrvZEs0f7DIw8APyHDcWPO2uYqBMv9aB97TTRlMxxHR5zetSLaypZ9WN9G72iiCG/xVHHKiYF7YySGOKXizKd4zTL9rSwDkP8SGHZJAbUboo5fnOogZwCABa5cm9a3zUOI0s5yMhwWzPJtKvvN771SZD8vbtzlrvkZrs0jzEuFAs2RkC/uH+KuH/Zg/47QDjcAnfR1S6dngbhxFZgxxibOgSfGY5S5mqC/toc8eBoM4cekdBxq1+9t72BZBrY/rypAD+gSRiFho74KYRPTYBUMKReWZWDf1OWn+wJ/whiQFjjhQ/O+sDsZB+mjGWz1HGca0FjsX0FomFGv3rO+DVzkga0SkrylKPScUWWH+gtnD07xYJNE8KUKfU+OZK7UYdKvRj40+4mtBkS9NgO2YUD+FiRNgjwBNvpztKfT7cXDcpBEIV7+gcS/rKNATIrnK4yf7Ac3S1KKiah5VRs6xsphfCpSXvAYZ+a5SzFYmD4w1116R3CKpYUwirMw+rNNvXRznIwY3JCJ29srPINik4iGqUmTlGBMPjZIXl6X6d7KJYA+/ra4ji/9RUDNtOWtcecqxWHY25jAKyDwQh67kt9uI6EynAd+IkziEry+dXecnogjADGglVVK6/Jj/tjzkRRwhF5Zo5SO33qL/u6n3ZUIgNzzHPunOMVosphrW9ciCGQBZBSbsirwPKxe08TMfObs+pwrSrws8pftg/VqOWnBzkLWvgZML+UlHPDiG8BVtmyip/ADLzX3ZT0BzUa4dG4fOiswGIiZ8vBPUDDwzZoRANGWn6q17IOCvY1x5l/xJ8fBl9VF7LiCWc1civS+vG2x4yv/oP6jITCxUnedzaUfLi94vV1RfMc8pH3J5yNnAVaHO63JgnRYhYTSNoVUuXHrOSJIOwMqWc4Sxa6899eX/rh9ir+sm0IUj8lsQM9wO2r68qutJgWFlAxG/rpWOMIf1AFdc6SPTq9hEetSVQK6jgfSo5soP4eLIoAW1gd2cWI8gfV62sKEUMPprPKF1LKc3vEr2EoGtFcI4chHy5Wb6XKzx8gM10ZRR56ZIPeHnU2PeWomu/M/+lYfV6PmB6YCTN+hvjfvzkuZJqmQca2oWSQw1xOVco7fziB5o3i51Z28TAdGEH3q/0VLJmJSSa3UQgloCgmiCXrquhBPyhOocMlq7yZxouQw0qnNRAXbBBWgBLlJ/hdklXe5/9iNmbC0opJDoaiDandjn90gmzkyhty5M61PHbnkJ/6Ym7A+Qihz6+u/NfZgQu3xbmB2TQFG0O2zXEhO2wG+QfQ8pJupNxUi1fLz7ngUpiaLmzDMy74wa7GIzWSZMU2XIheqUPIIeekByM2Yvrys9jPuEqPGXNBPHFFMxg1SPr5N4ltJMFdkgnKDh+DAds9SZL/IMAPaXHduSZg0AncoxG68vWr89XqYIHamzNw0qduNkt0wswxOj2rx+7tjpKWF9OBVbi6WCvvtf7nVPPXByr/eaiWdHFXVp+3W8wLQ4zALTu2fd0blVnSYaDk5GBGQY0Y638vDnAqovaCuwlQvLBpQgzm5L/tk4/z6PSEIumJo3z11X7GRoCIw4QT1RCV+qBIoWcE0wZrX1HcDQRXGj9MDetETMu27IwGsc2mf4//qUnbLZlyhda69ogCcbu/7KyK+DOWmmzdBJEFW1i4iEQIwAD5ferFtRUSnRPN3xgjysPQxlxhDu1HHEkomAs26dAqUVvdEYpLXk2aT+TCIQCAwoZlZAEKlk6TbgvMO4tlfkFp5rVH+Wm61udS5NJ8u9FbJNJMRuBzZLBB8IHdHa9Xc9zFD7ua7/X0G4YjMXqm03ewVFgMMcMARRIsQLHPjjPFK28kitI2mH+9hyqYtE5Wo65SjPv+JHlKH3WB30xX8YFKORtFaD1K5LFM2PwjRq4UQtga2BzAfJwyycHEfUlDMAQrMMeChrOxfO5uJr8iLAo7EErERjM8GlX1NimpdlBUcbpZXmMgXURRxpQ2yNzG+mFnngQncB0FjQY2asIQQ67PlmCNEcGK5fggh89x1koFTan+J8ivCIvCDkQnf1X+IDjio4TjVWq+pyRoQnGThlQkpsvZUb+nE5KS2GDzMxGROIOZMDknX+6FCbIS4ylamWbF/Z2+9blyNmq0jI9isjAeFP8AEWpGNXEqEpAQf3uRmu2RC0OoBeVQfp/YTybpSGvXF2bjHDycQmCD4oIN0swx/E/nBoyktlN8Lsmc5/DC5Mty6YsUBtMbHX/DsTBmChogKgxCEViJUJ8qCIvIYLYxU24m6ElE+xnbLJa+PtZZaxi0DkWjo3DYoJgC2AguYREmfjzeBHLGFTZ5QI95jsiJF7J21rc/xsLi3UFx6URjVm2sz6a7ylGCMZ8ZyySP3CX46kC1pZBQMxAKjBJkJ7YdvTkm2CCGx9lZkBrX+CuY2+5NCqznYPTjHRXkuORLY7SvyaZhdMJkj4CIyero7/uqn3JUsj6TOzJG+HnI3YZZLz/ZM5wRB0axIRW0ozcjwjY8WVkG/2kTIyysud5HgvR7T4cVFmD9MVfj88llBysFWgQLJ3vCMsLkxaZK2g3X1F9Ft7K1NSiODqDQVhYhGjPCyVpZ0bKINtbUWglMGV3TnGWu851ogEX6uOTYo4QthOBDT8IbvQR0FpXmJKzBI0mZ7SpKuCA/l6evt+oQMeYM06ZE6c7cjEb+KrqVra1BcXQABbWiPhggDkIh2urrg3Md+QiLyCzO+KsTNEw55aaZoGnBx07jAxsEN7BFUnvIR8pbpJEDNgobRPknXVV/3NV42bjrqAUYIYUqeiIpooUhghb5Wo9atl8+ImRMZgGpH/G0zXIW7/ZKHb0c0r3wd4zgjRtsEKyYC8wmtWSdXDInd7rH06+/0cZU94i7eZ670HNRPrbDNGCXJA6aTNhCCLZhHhHKxcn6FngKp7ob7/N0a8DIyBAc8V9YXXa0NsLFh0mDLVp846gOGoUD6utDTcQHBNDCEDTIprBH5FmyrmqfT+5i2HOqEcRMKsZd10bDAh/1rH1ANmAb5g9Vqdc2yC/zEwkxSrIPbaCIzGT26Z4ab69cCEQho2E2Jo2nt1mkBSPcr81Qc9ysN5sf8Mjddwu/Ke72mY6Sz/fVpbdK0AfmkXke9UajiTHBpnNFfR8gs0MtPyS/F2bMZJIuItfvEuVZDRbXM12lnmtyqwQljIbNOOiOwAYhJEg0KnWhUb21rhAPM1Z1JnKysHN3TnU2sCD929GutOZQz9MU2L5D0sdDxtAwBnukgpfb1dcn+mCbDBkRJGc2MNOxhBzy1dX5p2rEFrUhRiS6HKNAY4UtdmQDPMyzaEj9kCY/vo6oBBC9PNCiyrztlq84fnWg9kKD5NBMGCgIuw6aD8Yo5ciJAVE68Q1mEAEYrjSp5QcbyBWnuuTNwUDw8PST4jO3TXeWfXOyJ69fRKBhDKLzMQo0bt4WkRWOoH0kJ7BcbFR/3lqJbCAXkNk/4WGnzAcf7G3fWSKfSUdNtKJtIHD5B7AZyrBBLwJX+pEcvan/i2R5g9q9YKNEqd2latmBDv3Mz8OeVgI+eZb+4g7FmMkq3t8kny+hPiuzEU1m4RzGQ3cWNk0cRwvIU6FUapa8H03M1NO4xu+eJO15A1MS28D1RU/Ov080nq2Wy2akYRi75X/0YxtlNLDZjvhh8zsWQzAQE22LEQ8v1MmX+F9OyoMluCUwmNYmDxHLNKatbV5iacoteZSUhsHsxUU2fkZAd2pug+wMsYHSCffAkN+nQGWu0zvVWacTMG22BnJ9GC+zuuF8FYvXVv58WR2pk8/JoMeQNYO9/1ETPdAh3dI5VoJvnWxUK6+pVzbUTHeV6+fDjcAeiIoU2CYqznHm/+tIfU63CKVjg5+fYYxp7HQHYQshHYu0jggmVzvVt6f7ZnvKHnOL5xmppkzv5GP+SV7uJDzqapjhLHnOnfPF3qrUG92X6iR5oTmaQtE4IjaOH6M1uqXgMbrgPdqBKPoUhWpUpgkNaU7opivQutqoNtzs/XJ/zfOeXIbDaAyozDlYF/iBSYIkZ59xlX59svei8f0p+kQoGw0fA8ZOo4UtyNRHwKi2blSJ+tAapppwrnWhO5+wqZ+NEeSMl7LAD8Vh12hwirsF66bO066Keasq39/Tvvz0YNIt+Q70pXbxRZa9JNwgilOiSsCgc40KR1iK6EKULja+ebe/QqVkqn+eG/pgb+f85Cr9yitDYEAPJXYxKENr99KPWMEV7FFngatgxcmmWx3SM/AjyFi9f1TN7iRswzGkwybyZ/TLhwOfXy0fC8KWDefrColLunBEX4Mgdj3pqiZNmJPgXeDIfmNt0R+3lHy8o/zL/VXfHq796USjI62NsuJky3dHGnGjT3ZW/GlzyVupRQudWbMSmK5KaU4SGx4ArYFADjYeccnr2E+6qhasKluRNpjeIwzrkBhCw4kbhUbVbFxgi5uCW7FpeR5BD1857lPfHqpf5Mp92inP7d7vGbjXE6RNyj2egfs8kn8SslA6UQtfNB4WbsZdKAAfXOSgFJfUoTKpBA2BhE4srwopHKca0C505n29v/ZIiXgqTMIqpmZ52AgoSPYRxKeINJmw2YnD2C9KIablDan1OeoPO1tmOEqfdsqzwKgbJWoX1K8VBQoToT+pGbbo8Bu0a7xbRrd0zhA6G9J+/Pa2xtVZ8oldoi6M2TKOkVyHsyhI9jsIW/xdh9eMv60mefGDgmq08+kVrrdL7feqn040L13tJRgaLtjCxBPRP8JLCEi6/C5JirWrU3m6pfM5CQWvJnt/ONa4O0/ldgoDsAEzsGTH7G6guwU2SpA5GtukgmgN9RGgyCNwwc+P9S7RX8GVj7xWP+6UF5QJgEaQbEH7hFYKkRPXecjdZoRQXVoe9dym2mOepqlu8yH+p5zlz7h8L6XWfnake12WIjNkIIYj1xjRknniaVxgGynF0bOhM/5o/yMF0Fk7swtqrVLq5m15SXXDjT6yDzKRt9blL0nOe9aVPT8hS76y68ib7fBS2GCXg4ucWVR4c6132bYSmqRe6zlSLB8pIv+kQ7rVawkG0r4Vefbi0GjAHH9N3sWwRVaQOCU6xRtQMWsvlE4ug/bLjBdkCo1ffrzWpc7flsJG5oAc5JS1SKAJDWlOJzGSiwgsRDgUD42/JoNgG4aruJgefxbDSTOiwcM5rKU0haCK01iFXV30WV2TJhZgfoECPEdMN2w1I1Dss3aKv2YsUur/AyI4GGe63ldmAAAAAElFTkSuQmCC;" vertex="1" parent="1">
          <mxGeometry x="382" y="390" width="56" height="55.62" as="geometry" />
        </mxCell>
        <mxCell id="UJDGfCUmO6uZdWw0l1g9-11" value="" style="edgeStyle=orthogonalEdgeStyle;rounded=0;orthogonalLoop=1;jettySize=auto;html=1;" edge="1" parent="1" source="UJDGfCUmO6uZdWw0l1g9-4">
          <mxGeometry relative="1" as="geometry">
            <mxPoint x="410.0999999999999" y="530" as="targetPoint" />
          </mxGeometry>
        </mxCell>
        <mxCell id="UJDGfCUmO6uZdWw0l1g9-4" value="CDN" style="text;strokeColor=none;align=center;fillColor=none;html=1;verticalAlign=middle;whiteSpace=wrap;rounded=0;" vertex="1" parent="1">
          <mxGeometry x="380" y="440" width="60" height="30" as="geometry" />
        </mxCell>
        <mxCell id="UJDGfCUmO6uZdWw0l1g9-15" value="ELB" style="text;strokeColor=none;align=center;fillColor=none;html=1;verticalAlign=middle;whiteSpace=wrap;rounded=0;" vertex="1" parent="1">
          <mxGeometry x="380" y="585" width="60" height="30" as="geometry" />
        </mxCell>
        <mxCell id="UJDGfCUmO6uZdWw0l1g9-17" value="" style="shape=image;verticalLabelPosition=bottom;labelBackgroundColor=default;verticalAlign=top;aspect=fixed;imageAspect=0;image=data:image/png,iVBORw0KGgoAAAANSUhEUgAAADYAAAAzCAIAAABT6mw5AAAAAXNSR0IArs4c6QAAAARnQU1BAACxjwv8YQUAAAAJcEhZcwAADsMAAA7DAcdvqGQAAAASdEVYdFNvZnR3YXJlAEdyZWVuc2hvdF5VCAUAAAQMSURBVGhD7ZnvZ9VRHMf7myJ6EBE9iIjoQYyIHkTEHvQoogcRET3INP2wTFczyzJdJcs0TT8sm2n6YbmaJstmmizL6XV8jvP93u+99/z8xqi34/qe749zXt9zPj/O+d5dasfrn0Hc/q1GFlTfqNp/S/+OL5rztagexPNP1e6BtjL4xlzKVw2IcytVPsqeG2rzl7khUzUgDs9V+aQsfDM3ZKoGxJkvVTgpaz/NDZmqARFfOTFW5bv83FzNVz3ucmpc7R0s+PDr27PmUr5qQGzMa+fAaQ4Pa74Lk2pxVe27uWNscWlN0wy80scWEQ29VUfu1ePUWYhihRQOUBkRMfsXn5njHGUhEp8Zwta6qVYQV35oo3zyyVSTlY6I8WGCY+9MFVUQ0cR7TQlrjhIRMTJMrb9pqqJORHTusZ7xHCUiYmQHh6rBuSsi93An3pOsFMSpzxqF34q6IiLuJGoSidIUjcioHLjTPXn0QkSM+vERtbVtqlGKRsS2jja6d+ZAxHa5emXaVKMUh8haFS/uNWUORPR6WT/LmiNWEYjLGzoKOpKvGxFdfaEO3VUbW6YaqFBE8sfJB7pIIukqLyLPYpGYSpRCEYkaBGEG0iEvIsJI8O6ozU0QImsF2iVVuBWCiHhbDMb9tmX5EXHewNkJRETkG7v48MqPSKQItPFwRPG8azOm6pYHURIJ8SJE4YiIfXdgDHIhMnKMH5EiUFGI6Owj3b53F+ZCpLOorBWLyCKNXOq18p6Ik0vRuT8WEbHg5RF3DOqOKO/HHj5KCYiI+90xqA2RZI9/8GanH+oSqzREWWGQt+iX3jvtqkAkPksfsiNO2HOkIaLrL/WDjCW/LKMqG4kC8cyEjqgfv+vXIhbywOqmuRSoNER6YVAuTekAQu/sN/D0sgpEmKxzMNpUmx9MNVBpiPglAdKmBhyArssqEPtGdTgVyfe42A1HGiKd8tR0y1SJQZCUVSDOftVrGaabRT8HPEYhLhIRApNpFCJt0jLTKh3RI3ONjxJJKl9aCkSEnTbm9dcPRts+TOGY/bI3hgci0g7tk1ds+8wsfPRL753Jpg2xLN6S1RejaBtir0nTDlAvIgYHB+Nk2+SYM+41Sk9EK8y5/PkQ0F6NOhCZH6KEhDMp3Ox+YSs/oojFDiHJdoDpABqy1SdKcAaftc8yM8xPoH2jUEQR/fU3i/4YFcaGwEYhmNmTOBwEWD03y0kpvGTnBwKv4hBFrXUNYWeNA2yfSAETYZ8lIMNZ9gYKrASyNKUgihg55tqGp3IqIsjJSehxVft1L03piCL8hvU9PlQWyxb4xAbylYuI8EqAyvFWFv1Mei2qARHJjJMw8QaWLczvzvqDTURikIR07L5/xx2l2hD/nv4j5kupPzLklQYPOxKlAAAAAElFTkSuQmCC;" vertex="1" parent="1">
          <mxGeometry x="383" y="534" width="54" height="51" as="geometry" />
        </mxCell>
      </root>
    </mxGraphModel>
  </diagram>
</mxfile>
